<?xml version="1.0" standalone="no"?>
<!DOCTYPE svg PUBLIC "-//W3C//DTD SVG 20010904//EN"
 "http://www.w3.org/TR/2001/REC-SVG-20010904/DTD/svg10.dtd">
<svg version="1.0" xmlns="http://www.w3.org/2000/svg"
 width="120.000000pt" height="120.000000pt" viewBox="0 0 120.000000 120.000000"
 preserveAspectRatio="xMidYMid meet">
<metadata>
Created by potrace 1.14, written by Peter Selinger 2001-2017
</metadata>
<g transform="translate(0.000000,120.000000) scale(0.100000,-0.100000)"
fill="#000000" stroke="none">
<path d="M562 1142 c8 -9 7 -11 -4 -7 -8 3 -21 -2 -29 -12 -13 -16 -12 -17 4
-4 9 7 17 9 17 3 0 -11 -28 -24 -39 -18 -4 3 -8 -7 -9 -20 -1 -15 2 -23 8 -19
6 4 8 11 5 16 -4 5 -1 9 4 9 14 0 14 -17 1 -25 -5 -3 -10 -15 -10 -26 0 -10
-5 -19 -11 -19 -5 0 -7 4 -4 10 4 6 -1 7 -11 3 -11 -4 -13 -8 -6 -11 20 -6 14
-25 -6 -20 -12 3 -19 0 -19 -9 0 -9 7 -11 21 -8 21 6 21 6 1 -6 -11 -7 -24
-17 -28 -23 -6 -7 -7 -4 -3 6 3 10 1 20 -4 23 -6 4 -10 0 -10 -7 0 -7 -12 -26
-26 -43 -21 -25 -23 -26 -9 -4 13 22 13 26 0 26 -8 0 -12 -4 -9 -8 7 -11 -16
-22 -48 -23 -18 -1 -27 3 -24 11 3 7 -1 10 -9 6 -8 -3 -13 -9 -10 -13 3 -5 1
-11 -4 -14 -5 -4 -8 5 -7 19 2 15 -1 22 -7 18 -15 -9 -68 -9 -74 0 -2 4 1 6 8
5 6 -2 14 4 16 12 3 9 1 11 -4 5 -4 -6 -17 -11 -28 -11 -11 0 -24 5 -28 11 -5
6 -7 2 -4 -10 3 -16 -2 -20 -22 -22 -14 0 -29 4 -33 10 -6 9 -8 9 -8 0 0 -7 8
-17 18 -22 13 -8 14 -10 2 -11 -13 0 -13 -1 0 -10 9 -6 10 -10 3 -10 -7 0 -16
6 -20 14 -7 12 -10 11 -23 -2 -13 -14 -12 -15 3 -9 15 6 17 3 12 -14 -5 -14
-3 -19 4 -15 7 4 9 1 5 -8 -3 -8 -13 -12 -22 -10 -14 5 -14 4 1 -6 9 -6 15
-15 12 -20 -3 -5 -1 -11 5 -15 6 -4 8 -10 6 -14 -8 -12 28 -9 37 3 5 6 6 1 2
-11 -3 -12 -1 -25 6 -29 7 -4 9 -3 5 4 -3 6 -2 14 4 17 6 4 10 3 9 -2 -1 -4
-1 -15 0 -23 1 -13 2 -13 11 0 7 11 9 6 6 -18 -2 -19 2 -39 10 -47 19 -18 18
-29 -2 -21 -15 6 -15 4 1 -20 9 -15 13 -24 9 -21 -5 3 -15 -1 -22 -9 -9 -10
-9 -14 -1 -14 8 0 7 -5 -2 -17 -8 -9 -9 -14 -3 -10 7 4 15 0 18 -9 3 -8 2 -12
-4 -9 -6 3 -10 1 -10 -4 0 -6 6 -11 14 -11 8 0 13 -10 12 -27 -1 -16 3 -34 9
-42 7 -11 7 -13 -3 -7 -9 6 -11 1 -8 -18 3 -15 1 -24 -5 -21 -5 4 -7 11 -4 16
3 5 -1 6 -10 3 -13 -5 -13 -9 -3 -22 12 -14 10 -14 -11 -3 -15 8 -21 9 -17 2
4 -6 2 -11 -3 -11 -6 0 -11 -4 -11 -9 0 -5 8 -7 19 -4 10 3 22 -1 26 -8 5 -8
4 -10 -4 -5 -7 5 -25 2 -42 -4 -27 -12 -35 -29 -30 -67 1 -6 -3 -14 -9 -18 -6
-3 -7 0 -4 9 4 10 1 16 -7 16 -7 0 -9 -3 -6 -7 4 -3 1 -13 -6 -21 -9 -13 -9
-14 0 -8 8 4 13 2 13 -5 0 -8 4 -8 18 1 9 7 4 1 -11 -14 -15 -14 -24 -26 -20
-26 5 0 14 5 21 12 9 9 12 9 12 -1 0 -7 4 -10 9 -7 5 3 11 -1 15 -9 7 -18 32
-20 39 -2 4 9 6 9 6 -1 1 -7 5 -10 11 -7 5 3 8 0 7 -7 -2 -7 -2 -10 0 -5 3 4
11 7 18 7 7 0 16 6 18 13 4 9 6 9 6 0 1 -7 6 -13 12 -13 5 0 7 5 3 12 -5 8 -2
9 9 5 12 -4 17 -1 17 11 1 13 4 11 16 -8 8 -14 13 -17 10 -7 -3 9 -1 17 5 17
6 0 7 5 3 12 -4 7 -3 8 5 4 6 -4 8 -13 4 -19 -4 -7 1 -5 12 3 17 14 17 13 10
-10 l-8 -25 21 25 c12 14 21 20 22 15 0 -6 -4 -15 -10 -21 -6 -6 -3 -10 10
-11 13 -1 17 3 13 13 -3 8 0 14 7 14 6 0 9 -4 6 -8 -5 -9 29 -52 41 -52 4 0 2
5 -5 12 -7 7 -12 19 -11 28 0 9 4 6 10 -8 5 -13 13 -21 17 -18 5 3 19 -5 31
-18 15 -16 19 -26 11 -31 -7 -4 -1 -15 17 -31 16 -14 20 -22 11 -18 -13 4 -18
1 -18 -11 0 -9 5 -13 10 -10 6 4 10 -5 10 -19 0 -14 3 -27 8 -27 43 -7 90 -4
85 5 -4 6 0 5 9 -2 11 -9 18 -10 23 -2 3 6 10 8 15 5 5 -3 7 9 5 27 l-4 33 14
-25 c14 -24 14 -24 8 12 -5 37 0 44 31 39 5 -1 4 4 -2 12 -7 8 -8 18 -4 22 4
5 0 5 -8 0 -12 -7 -13 -6 -2 6 11 12 14 12 22 -1 6 -9 10 -10 10 -3 0 7 -8 17
-17 22 -25 14 -7 14 20 -1 20 -10 21 -10 8 5 -11 14 -11 18 2 23 9 3 21 3 27
-1 14 -9 13 8 -2 25 -11 12 -10 12 3 2 9 -6 20 -8 24 -4 5 4 5 2 1 -5 -3 -6
-1 -15 5 -19 8 -4 9 -3 5 4 -4 8 3 16 19 22 35 13 35 13 29 -7 -5 -15 -4 -15
5 -3 7 11 5 20 -7 35 -14 16 -14 17 -1 7 9 -6 20 -8 24 -4 5 4 6 2 2 -3 -3 -6
2 -19 10 -30 9 -12 14 -14 11 -5 -4 12 1 15 21 14 16 -1 26 -7 25 -16 -1 -11
7 -14 28 -12 21 3 27 0 22 -9 -4 -7 -3 -8 2 -4 5 5 9 13 9 18 0 5 5 9 10 8 6
0 9 -8 7 -17 -1 -9 5 -4 13 11 13 23 35 30 35 11 0 -3 -5 -2 -12 2 -7 4 -8 3
-4 -4 4 -7 2 -12 -3 -12 -6 0 -11 -5 -11 -12 0 -6 11 -1 25 12 13 12 22 27 19
32 -11 17 7 47 24 41 14 -5 13 -3 -2 9 -10 8 -16 20 -12 26 4 7 1 12 -8 12 -9
0 -16 5 -16 11 0 5 4 8 9 4 5 -3 13 0 17 6 4 8 3 9 -4 5 -7 -4 -12 -2 -12 4 0
7 -6 10 -13 7 -16 -6 -26 0 -47 28 -11 16 -9 15 12 -3 19 -17 28 -20 33 -11 5
7 4 10 -2 6 -12 -7 -36 16 -27 26 3 3 -5 4 -19 3 -18 -2 -24 1 -20 10 3 8 9
11 14 8 5 -3 9 0 9 5 0 15 -13 14 -29 -1 -11 -11 -13 -10 -8 5 4 10 1 17 -6
17 -8 0 -9 3 -1 8 6 4 10 19 9 34 -1 15 2 25 7 22 4 -3 5 -11 1 -17 -4 -7 0
-6 10 2 18 15 23 26 7 16 -8 -5 -14 38 -9 71 0 4 -5 11 -13 16 -10 8 -10 9 2
5 8 -2 14 -10 12 -16 -1 -6 2 -11 8 -11 13 0 12 11 -4 32 -7 10 -16 15 -20 11
-4 -4 -4 0 0 10 3 9 11 14 17 10 5 -3 7 -1 3 5 -3 5 0 13 6 16 7 3 3 3 -9 0
-28 -7 -29 2 -5 24 10 10 11 13 3 7 -12 -9 -12 -7 -1 15 8 14 13 29 12 33 -1
5 2 6 6 3 5 -3 18 4 28 15 10 11 23 18 30 15 10 -4 11 1 4 19 -6 17 -5 33 5
52 13 24 13 28 0 31 -8 2 -11 10 -8 19 4 11 2 14 -5 9 -7 -4 -12 -2 -12 3 0 6
5 11 10 11 6 0 10 5 10 11 0 8 -4 8 -12 2 -23 -17 -47 -23 -42 -10 2 7 -4 13
-16 14 -11 1 -20 -3 -20 -8 0 -6 -5 -7 -10 -4 -6 4 -8 10 -6 14 3 4 -1 8 -9 8
-10 0 -12 -4 -5 -12 8 -9 2 -16 -20 -25 -17 -7 -27 -17 -23 -24 3 -6 -3 -2
-15 8 -14 12 -22 14 -22 7 0 -7 -5 -9 -10 -6 -6 4 -7 11 -4 17 4 7 2 8 -4 4
-6 -4 -10 -12 -8 -19 1 -7 1 -9 -1 -5 -2 4 -10 6 -16 4 -7 -1 -9 -1 -4 1 14 8
7 19 -13 20 -11 1 -18 -2 -15 -8 4 -5 -5 -4 -19 2 -13 6 -27 23 -31 37 -5 20
-8 23 -15 12 -7 -11 -12 -11 -23 -2 -7 7 -16 9 -19 7 -3 -3 -5 5 -4 17 1 16
-4 22 -14 20 -12 -3 -12 -1 -3 9 10 10 16 9 30 -2 17 -13 17 -12 2 6 -9 11
-14 27 -12 35 3 9 0 8 -9 -4 -12 -15 -17 -16 -23 -6 -5 8 -4 11 2 7 6 -4 10 7
11 26 0 28 -1 30 -9 10 -4 -13 -11 -23 -13 -23 -3 0 -2 7 1 17 5 12 3 14 -8 8
-8 -5 -5 2 6 15 11 13 14 20 8 16 -7 -4 -19 -4 -25 0 -7 5 -32 8 -55 9 -32 0
-39 -3 -31 -13z m83 -2 c3 -5 1 -10 -4 -10 -6 0 -11 5 -11 10 0 6 2 10 4 10 3
0 8 -4 11 -10z m105 -175 c-7 -9 -15 -13 -19 -10 -3 3 1 10 9 15 21 14 24 12
10 -5z m-628 -133 c-10 -3 -10 -7 0 -20 10 -14 10 -15 -2 -5 -20 18 -22 43 -2
35 11 -4 12 -7 4 -10z m85 -117 c0 -8 -4 -12 -9 -9 -5 3 -6 10 -3 15 9 13 12
11 12 -6z m20 -60 c0 -8 -4 -12 -9 -9 -5 3 -6 10 -3 15 9 13 12 11 12 -6z
m765 -409 c7 4 8 2 4 -5 -9 -13 -26 -5 -25 12 0 9 2 8 6 -1 2 -6 10 -9 15 -6z
m-287 -94 c-3 -3 -11 0 -18 7 -9 10 -8 11 6 5 10 -3 15 -9 12 -12z m-140 -101
c-6 -5 -25 10 -25 20 0 5 6 4 14 -3 8 -7 12 -15 11 -17z m105 25 c0 -2 -8 -10
-17 -17 -16 -13 -17 -12 -4 4 13 16 21 21 21 13z"/>
<path d="M710 1014 c0 -1 8 -8 17 -15 9 -8 14 -9 10 -2 -4 6 -1 13 5 16 7 3 3
4 -9 4 -13 -1 -23 -2 -23 -3z"/>
<path d="M786 966 c7 -19 20 -21 30 -3 4 6 4 9 -1 5 -4 -4 -14 -3 -22 4 -11 8
-12 7 -7 -6z"/>
<path d="M126 958 c3 -5 10 -6 15 -3 13 9 11 12 -6 12 -8 0 -12 -4 -9 -9z"/>
<path d="M926 954 c-11 -7 -18 -16 -15 -18 2 -2 13 2 23 10 11 7 18 16 15 18
-2 2 -13 -2 -23 -10z"/>
<path d="M356 947 c3 -10 9 -15 12 -12 3 3 0 11 -7 18 -10 9 -11 8 -5 -6z"/>
<path d="M1105 874 c-20 -31 -6 -55 16 -28 9 12 10 15 2 10 -16 -9 -16 -1 -3
25 15 28 5 23 -15 -7z"/>
<path d="M1049 770 c-13 -10 -20 -19 -16 -20 4 0 17 9 29 20 28 26 17 26 -13
0z"/>
<path d="M185 505 c-1 -38 7 -38 12 0 2 13 0 26 -4 28 -5 3 -8 -10 -8 -28z"/>
<path d="M1003 495 c0 -8 4 -12 9 -9 4 3 8 9 8 15 0 5 -4 9 -8 9 -5 0 -9 -7
-9 -15z"/>
<path d="M75 350 c-3 -6 1 -7 9 -4 18 7 21 14 7 14 -6 0 -13 -4 -16 -10z"/>
<path d="M935 239 c-4 -6 -5 -12 -2 -15 2 -3 7 2 10 11 7 17 1 20 -8 4z"/>
<path d="M160 220 c-9 -6 -10 -10 -3 -10 6 0 15 5 18 10 8 12 4 12 -15 0z"/>
<path d="M460 200 c0 -5 5 -10 11 -10 5 0 7 -4 4 -10 -3 -5 2 -10 11 -10 16 0
16 1 -1 20 -20 23 -25 24 -25 10z"/>
<path d="M493 125 c0 -8 4 -12 9 -9 5 3 6 10 3 15 -9 13 -12 11 -12 -6z"/>
</g>
</svg>
