<?xml version="1.0" standalone="no"?>
<!DOCTYPE svg PUBLIC "-//W3C//DTD SVG 20010904//EN"
 "http://www.w3.org/TR/2001/REC-SVG-20010904/DTD/svg10.dtd">
<svg version="1.0" xmlns="http://www.w3.org/2000/svg"
 width="512.000000pt" height="512.000000pt" viewBox="0 0 512.000000 512.000000"
 preserveAspectRatio="xMidYMid meet">
<metadata>
Created by potrace 1.14, written by Peter Selinger 2001-2017
</metadata>
<g transform="translate(0.000000,512.000000) scale(0.100000,-0.100000)"
fill="#000000" stroke="none">
<path d="M124 3961 c-2 -2 20 -29 49 -60 28 -31 70 -78 92 -104 22 -26 51 -60
65 -76 70 -77 99 -111 140 -163 51 -64 63 -72 91 -58 10 6 19 7 19 3 0 -10
211 -10 228 0 6 5 12 5 12 0 0 -4 93 -8 208 -7 l207 0 0 62 c1 33 4 64 8 68 3
4 3 14 -2 23 -7 14 -8 49 -1 76 1 6 1 12 0 15 -8 18 -5 66 4 72 7 5 7 8 1 8
-11 0 -12 97 -1 107 3 3 -2 13 -11 22 -15 14 -73 16 -560 16 -300 0 -546 -2
-549 -4z"/>
<path d="M1370 3960 c-8 -5 -17 -7 -21 -4 -4 2 -9 -2 -11 -9 -3 -6 -4 -466 -3
-1021 2 -982 2 -1010 21 -1024 10 -7 107 -67 214 -132 107 -66 200 -124 207
-129 7 -6 17 -11 23 -11 5 0 10 -5 10 -11 0 -5 5 -7 10 -4 5 3 10 2 10 -3 0
-5 12 -15 28 -22 15 -8 34 -19 42 -26 8 -6 35 -22 60 -35 25 -13 47 -27 50
-30 3 -4 21 -16 41 -27 77 -43 84 -47 89 -53 3 -3 39 -25 80 -50 41 -24 77
-47 78 -51 2 -5 12 -8 22 -8 10 0 20 -4 22 -8 3 -8 79 -57 187 -119 36 -22 38
-22 57 -5 10 10 42 29 69 43 28 13 52 27 55 30 3 3 27 19 53 35 27 16 59 36
72 44 12 8 49 31 81 50 67 39 120 73 149 95 10 8 23 15 29 15 5 0 24 11 42 25
18 14 36 25 39 25 4 0 26 13 50 30 24 16 48 30 53 30 6 0 12 3 14 8 3 7 140
92 163 101 5 2 36 21 67 43 31 21 60 38 63 38 3 0 44 25 92 55 47 30 90 56 96
58 15 5 17 2038 3 2052 -9 8 -482 11 -721 5 -5 0 -37 1 -70 3 -33 2 -70 0 -82
-5 -12 -4 -24 -4 -27 0 -2 4 -71 6 -153 4 -81 -1 -152 -2 -158 -2 -5 0 -242 1
-526 2 -283 1 -520 -2 -526 -5 -7 -4 -14 -4 -17 1 -3 5 -28 6 -55 2 -28 -3
-52 -3 -53 2 -2 4 -10 3 -18 -2z"/>
<path d="M3914 3961 c-10 -2 -22 -8 -25 -13 -8 -13 -6 -435 3 -443 9 -9 191
-10 206 -1 7 4 12 3 12 -2 0 -5 16 -8 35 -8 19 1 35 5 35 9 0 4 8 3 18 -2 26
-14 34 -14 43 1 5 7 9 9 9 3 0 -11 100 -12 118 -1 7 4 12 4 12 -1 0 -4 48 -7
107 -7 l106 2 61 64 c34 35 70 75 81 89 40 49 200 235 223 259 57 59 90 55
-492 55 -293 0 -541 -2 -552 -4z"/>
<path d="M630 3399 c0 -3 16 -24 36 -45 97 -104 125 -136 199 -224 44 -52 87
-102 95 -110 8 -8 25 -28 38 -44 16 -21 34 -31 67 -36 25 -4 47 -5 50 -2 3 3
31 6 63 6 57 1 57 1 58 32 1 18 4 39 7 47 3 8 3 18 0 21 -9 9 -10 56 -1 56 4
0 5 6 3 13 -11 29 -12 87 -2 87 7 0 7 4 -1 12 -7 7 -8 17 -1 30 5 10 6 18 1
18 -9 0 -10 72 -1 80 3 3 2 19 -3 36 l-8 32 -300 -1 c-165 -1 -300 -4 -300 -8z"/>
<path d="M3885 3396 c-8 -26 -11 -76 -4 -76 4 0 3 -16 -1 -35 -4 -19 -5 -35
-1 -35 3 0 6 -23 6 -50 0 -28 -3 -50 -6 -50 -5 0 -4 -40 1 -47 5 -8 3 -61 -3
-70 -4 -7 -3 -14 1 -17 5 -3 7 -17 4 -31 -5 -26 23 -59 41 -48 4 2 44 5 88 5
89 0 82 -4 159 87 25 28 60 69 79 89 18 20 50 57 70 82 36 44 85 100 149 167
17 18 32 35 32 37 0 2 -138 3 -306 3 -215 0 -307 -3 -309 -11z"/>
</g>
</svg>
